<svg width="696" height="91" viewBox="0 0 696 91" fill="none" xmlns="http://www.w3.org/2000/svg">
<path d="M48 3.90594L59.8402 32.3732L60.192 33.2191L61.1053 33.2923L91.8381 35.7561L68.4229 55.8137L67.7271 56.4097L67.9397 57.3009L75.0934 87.2909L48.7819 71.2199L48 70.7423L47.2181 71.2199L20.9066 87.2909L28.0603 57.3009L28.2729 56.4097L27.5771 55.8137L4.16194 35.7561L34.8947 33.2923L35.808 33.2191L36.1598 32.3732L48 3.90594Z" fill="#F1C644" stroke="#F1C644" stroke-width="3"/>
<path d="M198 3.90594L209.84 32.3732L210.192 33.2191L211.105 33.2923L241.838 35.7561L218.423 55.8137L217.727 56.4097L217.94 57.3009L225.093 87.2909L198.782 71.2199L198 70.7423L197.218 71.2199L170.907 87.2909L178.06 57.3009L178.273 56.4097L177.577 55.8137L154.162 35.7561L184.895 33.2923L185.808 33.2191L186.16 32.3732L198 3.90594Z" fill="#F1C644" stroke="#F1C644" stroke-width="3"/>
<path d="M348 3.90594L359.84 32.3732L360.192 33.2191L361.105 33.2923L391.838 35.7561L368.423 55.8137L367.727 56.4097L367.94 57.3009L375.093 87.2909L348.782 71.2199L348 70.7423L347.218 71.2199L320.907 87.2909L328.06 57.3009L328.273 56.4097L327.577 55.8137L304.162 35.7561L334.895 33.2923L335.808 33.2191L336.16 32.3732L348 3.90594Z" fill="#F1C644" stroke="#F1C644" stroke-width="3"/>
<path d="M498 0L511.225 31.7971L545.553 34.5491L519.399 56.9529L527.389 90.4509L498 72.5L468.611 90.4509L476.601 56.9529L450.447 34.5491L484.775 31.7971L498 0Z" fill="#D4D4D4"/>
<path d="M648 0L661.225 31.7971L695.553 34.5491L669.399 56.9529L677.389 90.4509L648 72.5L618.611 90.4509L626.601 56.9529L600.447 34.5491L634.775 31.7971L648 0Z" fill="#D4D4D4"/>
</svg>
